<svg xmlns="http://www.w3.org/2000/svg" xmlns:xlink="http://www.w3.org/1999/xlink" version="1.1" width="940" height="788" viewBox="0 0 940 788" xml:space="preserve">
<desc>Created with Fabric.js 3.5.0</desc>
<defs>
</defs>
<rect x="0" y="0" width="100%" height="100%" fill="#ffffff"/>
<g transform="matrix(1.9026 0 0 1.9026 647.7532 512.6892)" id="718060">
<g style="" vector-effect="non-scaling-stroke">
		<g transform="matrix(-1.8 0 0 -1.8 -199.548 -162.558)" id="SVGRepo_iconCarrier">
<path style="stroke: rgb(0,0,0); stroke-width: 1; stroke-dasharray: none; stroke-linecap: butt; stroke-dashoffset: 0; stroke-linejoin: miter; stroke-miterlimit: 4; is-custom-font: none; font-file-url: none; fill: rgb(0,0,0); fill-opacity: 0; fill-rule: nonzero; opacity: 1;" transform=" translate(-60.86, -40.31)" d="M 65.66 40.31 c -4.3 0 -4.8 0.5 -4.8 4.8 c 0 -4.3 -0.5 -4.8 -4.8 -4.8 c 4.3 0 4.8 -0.5 4.8 -4.8 c 0 4.3 0.5 4.8 4.8 4.8 Z" stroke-linecap="round"/>
</g>
		<g transform="matrix(-1.8 0 0 -1.8 -160.74 -196.362)" id="SVGRepo_iconCarrier">
<path style="stroke: rgb(0,0,0); stroke-width: 1; stroke-dasharray: none; stroke-linecap: butt; stroke-dashoffset: 0; stroke-linejoin: miter; stroke-miterlimit: 4; is-custom-font: none; font-file-url: none; fill: rgb(0,0,0); fill-opacity: 0; fill-rule: nonzero; opacity: 1;" transform=" translate(-39.3, -59.09)" d="M 42.91 59.09 c -3.23 0 -3.61 0.38 -3.61 3.61 c 0 -3.23 -0.38 -3.61 -3.61 -3.61 c 3.23 0 3.61 -0.38 3.61 -3.61 c 0 3.23 0.38 3.61 3.61 3.61 Z" stroke-linecap="round"/>
</g>
		<g transform="matrix(-1.8 0 0 -1.8 -170.226 -208.566)" id="SVGRepo_iconCarrier">
<path style="stroke: rgb(0,0,0); stroke-width: 1; stroke-dasharray: none; stroke-linecap: butt; stroke-dashoffset: 0; stroke-linejoin: miter; stroke-miterlimit: 4; is-custom-font: none; font-file-url: none; fill: rgb(0,0,0); fill-opacity: 0; fill-rule: nonzero; opacity: 1;" transform=" translate(-44.57, -65.87)" d="M 46.85 65.87 c -2.04 0 -2.28 0.24 -2.28 2.28 c 0 -2.04 -0.24 -2.28 -2.28 -2.28 c 2.04 0 2.28 -0.24 2.28 -2.28 c 0 2.04 0.24 2.28 2.28 2.28 Z" stroke-linecap="round"/>
</g>
		<g transform="matrix(-1.8 0 0 -1.8 -181.791 -126.954)" id="SVGRepo_iconCarrier">
<path style="stroke: rgb(0,0,0); stroke-width: 1.5; stroke-dasharray: none; stroke-linecap: butt; stroke-dashoffset: 0; stroke-linejoin: miter; stroke-miterlimit: 10; is-custom-font: none; font-file-url: none; fill: rgb(0,0,0); fill-opacity: 0; fill-rule: nonzero; opacity: 1;" transform=" translate(-50.995, -20.53)" d="M 30.16 17.68 h 42.51 c 1.57 0 2.85 1.28 2.85 2.85 h 0 c 0 1.57 -1.28 2.85 -2.85 2.85 H 29.32 c -1.57 0 -2.85 -1.28 -2.85 -2.85 h 0 c 0 -1.57 1.28 -2.85 2.85 -2.85" stroke-linecap="round"/>
</g>
		<g transform="matrix(-1.8 0 0 -1.8 -181.791 -235.188)" id="SVGRepo_iconCarrier">
<rect style="stroke: rgb(0,0,0); stroke-width: 1.5; stroke-dasharray: none; stroke-linecap: butt; stroke-dashoffset: 0; stroke-linejoin: miter; stroke-miterlimit: 10; is-custom-font: none; font-file-url: none; fill: rgb(0,0,0); fill-opacity: 0; fill-rule: nonzero; opacity: 1;" x="-24.525" y="-2.85" rx="2.17" ry="2.17" width="49.05" height="5.7"/>
</g>
		<g transform="matrix(-1.8 0 0 -1.8 -181.782 -181.071)" id="SVGRepo_iconCarrier">
<polyline style="stroke: rgb(0,0,0); stroke-width: 1.5; stroke-dasharray: none; stroke-linecap: butt; stroke-dashoffset: 0; stroke-linejoin: miter; stroke-miterlimit: 10; is-custom-font: none; font-file-url: none; fill: rgb(0,0,0); fill-opacity: 0; fill-rule: nonzero; opacity: 1;" points="21.88,12.185 21.88,27.215 -21.88,27.215 -21.88,-27.215 21.88,-27.215 21.88,11.125 "/>
</g>
		<g transform="matrix(-1.8 0 0 -1.8 -164.34 -160.614)" id="SVGRepo_iconCarrier">
<rect style="stroke: rgb(0,0,0); stroke-width: 1.5; stroke-dasharray: none; stroke-linecap: butt; stroke-dashoffset: 0; stroke-linejoin: miter; stroke-miterlimit: 10; is-custom-font: none; font-file-url: none; fill: rgb(0,0,0); fill-opacity: 0; fill-rule: nonzero; opacity: 1;" x="-7.77" y="-9.19" rx="0" ry="0" width="15.54" height="18.38"/>
</g>
		<g transform="matrix(-1.8 0 0 -1.8 -199.548 -160.614)" id="SVGRepo_iconCarrier">
<rect style="stroke: rgb(0,0,0); stroke-width: 1.5; stroke-dasharray: none; stroke-linecap: butt; stroke-dashoffset: 0; stroke-linejoin: miter; stroke-miterlimit: 10; is-custom-font: none; font-file-url: none; fill: rgb(0,0,0); fill-opacity: 0; fill-rule: nonzero; opacity: 1;" x="-7.77" y="-9.19" rx="0" ry="0" width="15.54" height="18.38"/>
</g>
		<g transform="matrix(-1.8 0 0 -1.8 -164.034 -201.528)" id="SVGRepo_iconCarrier">
<rect style="stroke: rgb(0,0,0); stroke-width: 1.5; stroke-dasharray: none; stroke-linecap: butt; stroke-dashoffset: 0; stroke-linejoin: miter; stroke-miterlimit: 10; is-custom-font: none; font-file-url: none; fill: rgb(0,0,0); fill-opacity: 0; fill-rule: nonzero; opacity: 1;" x="-7.77" y="-9.19" rx="0" ry="0" width="15.54" height="18.38"/>
</g>
		<g transform="matrix(-1.8 0 0 -1.8 -199.242 -201.528)" id="SVGRepo_iconCarrier">
<rect style="stroke: rgb(0,0,0); stroke-width: 1.5; stroke-dasharray: none; stroke-linecap: butt; stroke-dashoffset: 0; stroke-linejoin: miter; stroke-miterlimit: 10; is-custom-font: none; font-file-url: none; fill: rgb(0,0,0); fill-opacity: 0; fill-rule: nonzero; opacity: 1;" x="-7.77" y="-9.19" rx="0" ry="0" width="15.54" height="18.38"/>
</g>
		<g transform="matrix(-1.8 0 0 -1.8 -158.742 -153.072)" id="SVGRepo_iconCarrier">
<line style="stroke: rgb(0,0,0); stroke-width: 1.5; stroke-dasharray: none; stroke-linecap: butt; stroke-dashoffset: 0; stroke-linejoin: miter; stroke-miterlimit: 10; is-custom-font: none; font-file-url: none; fill: rgb(0,0,0); fill-opacity: 0; fill-rule: nonzero; opacity: 1;" x1="1.5599999999999987" y1="-1.6799999999999997" x2="-1.5599999999999987" y2="1.6799999999999997"/>
</g>
		<g transform="matrix(-1.8 0 0 -1.8 -170.235 -169.371)" id="SVGRepo_iconCarrier">
<line style="stroke: rgb(0,0,0); stroke-width: 1.5; stroke-dasharray: none; stroke-linecap: butt; stroke-dashoffset: 0; stroke-linejoin: miter; stroke-miterlimit: 10; is-custom-font: none; font-file-url: none; fill: rgb(0,0,0); fill-opacity: 0; fill-rule: nonzero; opacity: 1;" x1="1.5549999999999997" y1="-1.6750000000000007" x2="-1.5549999999999997" y2="1.6750000000000007"/>
</g>
		<g transform="matrix(-1.8 0 0 -1.8 -163.962 -160.236)" id="SVGRepo_iconCarrier">
<line style="stroke: rgb(0,0,0); stroke-width: 1.5; stroke-dasharray: none; stroke-linecap: butt; stroke-dashoffset: 0; stroke-linejoin: miter; stroke-miterlimit: 10; is-custom-font: none; font-file-url: none; fill: rgb(0,0,0); fill-opacity: 0; fill-rule: nonzero; opacity: 1;" x1="4.27" y1="-4.889999999999997" x2="-4.27" y2="4.889999999999997"/>
</g>
		<g transform="matrix(-1.8 0 0 -1.8 -193.491 -193.374)" id="SVGRepo_iconCarrier">
<line style="stroke: rgb(0,0,0); stroke-width: 1.5; stroke-dasharray: none; stroke-linecap: butt; stroke-dashoffset: 0; stroke-linejoin: miter; stroke-miterlimit: 10; is-custom-font: none; font-file-url: none; fill: rgb(0,0,0); fill-opacity: 0; fill-rule: nonzero; opacity: 1;" x1="1.5549999999999997" y1="-1.6799999999999997" x2="-1.5549999999999997" y2="1.6799999999999997"/>
</g>
		<g transform="matrix(-1.8 0 0 -1.8 -204.984 -209.682)" id="SVGRepo_iconCarrier">
<line style="stroke: rgb(0,0,0); stroke-width: 1.5; stroke-dasharray: none; stroke-linecap: butt; stroke-dashoffset: 0; stroke-linejoin: miter; stroke-miterlimit: 10; is-custom-font: none; font-file-url: none; fill: rgb(0,0,0); fill-opacity: 0; fill-rule: nonzero; opacity: 1;" x1="1.5599999999999987" y1="-1.6799999999999997" x2="-1.5599999999999987" y2="1.6799999999999997"/>
</g>
		<g transform="matrix(-1.8 0 0 -1.8 -198.711 -200.538)" id="SVGRepo_iconCarrier">
<line style="stroke: rgb(0,0,0); stroke-width: 1.5; stroke-dasharray: none; stroke-linecap: butt; stroke-dashoffset: 0; stroke-linejoin: miter; stroke-miterlimit: 10; is-custom-font: none; font-file-url: none; fill: rgb(0,0,0); fill-opacity: 0; fill-rule: nonzero; opacity: 1;" x1="4.264999999999997" y1="-4.889999999999997" x2="-4.264999999999997" y2="4.889999999999997"/>
</g>
</g>
</g>
</svg>