<?xml version="1.0" encoding="iso-8859-1"?>
<!-- Uploaded to: SVG Repo, www.svgrepo.com, Generator: SVG Repo Mixer Tools -->
<svg fill="#000000" version="1.1" id="Layer_1" xmlns="http://www.w3.org/2000/svg" xmlns:xlink="http://www.w3.org/1999/xlink" 
	 viewBox="0 0 512 512" xml:space="preserve">
<g>
	<g>
		<path d="M478.393,182.269c-6.97-6.969-18.309-6.97-25.281,0.001l-15.355,15.356l-16.729-16.669l14.033-14.032l-39.559-39.56
			l-11.239,11.238l28.321,28.322l-58.679,58.679l-93.678-93.599l58.67-58.768l53.513,53.514l11.239-11.238l-64.752-64.752
			l-16.853,16.853c-5.762-6.544-15.686-16.301-29.669-24.722C251.033,30.04,215.867,17.977,169.516,33.5l-12.173,4.077
			l40.527,40.527l1.972,1.966l2.76,0.312c0.538,0.06,51.732,6.555,55.684,31.092l-20.556,20.555l27.988,27.888l-51.532,51.531
			l11.239,11.238l51.541-51.542l37.713,37.714L116.066,407.468l-37.714-37.713L210.59,237.516l-11.239-11.238L0,425.629
			l60.191,60.191l265.726-265.727l27.988,27.987l13.943-13.944l16.749,16.749l-15.347,15.347c-6.942,6.942-6.942,18.238,0,25.182
			l33.607,33.607L512,215.876L478.393,182.269z M207.207,64.961l-19.98-19.979c27.537-6.345,53.186-2.597,76.401,11.197
			c13.129,7.802,22.291,17.093,27.148,22.715l-19.952,20.009C258.534,74.191,218.414,66.618,207.207,64.961z M91.494,432.04
			l-29.394-27.899l-10.941,11.528l29.093,27.612l-20.061,20.061l-37.714-37.713l44.636-44.636l37.714,37.714L91.494,432.04z
			 M379.086,222.898l30.703-30.703l16.736,16.677l-30.696,30.768L379.086,222.898z M380.49,280.175
			c-0.759-0.759-0.759-1.948,0-2.706l83.861-83.96c0.762-0.761,2.045-0.76,2.806-0.001l4.863,4.863l-53.817,53.816l11.239,11.238
			l53.816-53.816l6.265,6.266l-86.667,86.667L380.49,280.175z"/>
	</g>
</g>
<g>
	<g>
		<rect x="338.938" y="94.461" transform="matrix(0.7071 -0.7071 0.7071 0.7071 3.3587 285.9782)" width="15.893" height="88.947"/>
	</g>
</g>
<g>
	<g>
		
			<rect x="293.501" y="125.588" transform="matrix(0.7096 -0.7046 0.7046 0.7096 -7.9217 251.7446)" width="15.894" height="19.79"/>
	</g>
</g>
<g>
	<g>
		
			<rect x="314.473" y="146.539" transform="matrix(0.7096 -0.7046 0.7046 0.7096 -16.5938 272.606)" width="15.894" height="19.79"/>
	</g>
</g>
<g>
	<g>
		
			<rect x="342.455" y="174.535" transform="matrix(0.7096 -0.7046 0.7046 0.7096 -28.194 300.4521)" width="15.894" height="19.79"/>
	</g>
</g>
<g>
	<g>
		
			<rect x="399.994" y="263.845" transform="matrix(0.7071 -0.7071 0.7071 0.7071 -72.1421 369.4163)" width="19.719" height="15.893"/>
	</g>
</g>
<g>
	<g>
		
			<rect x="272.465" y="190.545" transform="matrix(0.7071 -0.7071 0.7071 0.7071 -63.0869 258.4334)" width="15.893" height="29.649"/>
	</g>
</g>
</svg>