<?xml version="1.0" encoding="UTF-8" standalone="no" ?>
<!DOCTYPE svg PUBLIC "-//W3C//DTD SVG 1.1//EN" "http://www.w3.org/Graphics/SVG/1.1/DTD/svg11.dtd">
<svg xmlns="http://www.w3.org/2000/svg" xmlns:xlink="http://www.w3.org/1999/xlink" version="1.1" width="1080" height="1080" viewBox="0 0 1080 1080" xml:space="preserve">
<desc>Created with Fabric.js 5.2.4</desc>
<defs>
</defs>
<g transform="matrix(1 0 0 1 540 540)" id="deee957b-7fe4-4cdd-8eca-0edac6e5b465"  >
<rect style="stroke: none; stroke-width: 1; stroke-dasharray: none; stroke-linecap: butt; stroke-dashoffset: 0; stroke-linejoin: miter; stroke-miterlimit: 4; fill: rgb(255,255,255); fill-rule: nonzero; opacity: 1; visibility: hidden;" vector-effect="non-scaling-stroke"  x="-540" y="-540" rx="0" ry="0" width="1080" height="1080" />
</g>
<g transform="matrix(1 0 0 1 540 540)" id="776f7763-0bb0-415a-bbe3-eb4066ee534d"  >
</g>
<g transform="matrix(1 0 0 1 540 540)"  >
<g style="" vector-effect="non-scaling-stroke"   >
		<g transform="matrix(1.56 0 0 1.56 110.43 141.09)"  >
<path style="stroke: none; stroke-width: 1; stroke-dasharray: none; stroke-linecap: butt; stroke-dashoffset: 0; stroke-linejoin: miter; stroke-miterlimit: 4; fill: rgb(0,0,0); fill-rule: nonzero; opacity: 1;" vector-effect="non-scaling-stroke"  transform=" translate(-326.68, -346.3)" d="M 326.676 326.367 C 315.688 326.367 306.747 335.308 306.747 346.297 C 306.747 357.28600000000006 315.687 366.225 326.676 366.225 C 337.66499999999996 366.225 346.606 357.286 346.606 346.297 C 346.606 335.30800000000005 337.665 326.367 326.676 326.367 z M 326.676 354.225 C 322.304 354.225 318.747 350.668 318.747 346.297 C 318.747 341.92400000000004 322.30400000000003 338.367 326.676 338.367 C 331.04799999999994 338.367 334.606 341.92400000000004 334.606 346.297 C 334.605 350.668 331.048 354.225 326.676 354.225 z" stroke-linecap="round" />
</g>
		<g transform="matrix(1.56 0 0 1.56 -230.33 141.09)"  >
<path style="stroke: none; stroke-width: 1; stroke-dasharray: none; stroke-linecap: butt; stroke-dashoffset: 0; stroke-linejoin: miter; stroke-miterlimit: 4; fill: rgb(0,0,0); fill-rule: nonzero; opacity: 1;" vector-effect="non-scaling-stroke"  transform=" translate(-108.59, -346.3)" d="M 108.591 326.367 C 97.603 326.367 88.66199999999999 335.308 88.66199999999999 346.297 C 88.66199999999999 357.28600000000006 97.60199999999999 366.225 108.591 366.225 C 119.58 366.225 128.51999999999998 357.286 128.51999999999998 346.297 C 128.51999999999998 335.30800000000005 119.579 326.367 108.591 326.367 z M 108.591 354.225 C 104.219 354.225 100.66199999999999 350.668 100.66199999999999 346.297 C 100.66199999999999 341.92400000000004 104.219 338.367 108.591 338.367 C 112.963 338.367 116.52 341.92400000000004 116.52 346.297 C 116.52 350.668 112.963 354.225 108.591 354.225 z" stroke-linecap="round" />
</g>
		<g transform="matrix(1.56 0 0 1.56 205.63 141.09)"  >
<path style="stroke: none; stroke-width: 1; stroke-dasharray: none; stroke-linecap: butt; stroke-dashoffset: 0; stroke-linejoin: miter; stroke-miterlimit: 4; fill: rgb(0,0,0); fill-rule: nonzero; opacity: 1;" vector-effect="non-scaling-stroke"  transform=" translate(-387.6, -346.3)" d="M 387.605 326.367 C 376.61600000000004 326.367 367.675 335.308 367.675 346.297 C 367.675 357.28600000000006 376.615 366.225 387.605 366.225 C 398.593 366.225 407.534 357.286 407.534 346.297 C 407.534 335.30800000000005 398.594 326.367 387.605 326.367 z M 387.605 354.225 C 383.233 354.225 379.675 350.668 379.675 346.297 C 379.675 341.92400000000004 383.233 338.367 387.605 338.367 C 391.97700000000003 338.367 395.534 341.92400000000004 395.534 346.297 C 395.534 350.668 391.978 354.225 387.605 354.225 z" stroke-linecap="round" />
</g>
		<g transform="matrix(1.56 0 0 1.56 -266.6 -65.35)"  >
<path style="stroke: none; stroke-width: 1; stroke-dasharray: none; stroke-linecap: butt; stroke-dashoffset: 0; stroke-linejoin: miter; stroke-miterlimit: 4; fill: rgb(0,0,0); fill-rule: nonzero; opacity: 1;" vector-effect="non-scaling-stroke"  transform=" translate(-85.38, -214.18)" d="M 114.591 185.52 L 74.218 185.52 L 56.16 227.157 L 56.16 242.835 L 114.591 242.835 L 114.591 185.52 z M 102.591 230.834 L 68.16 230.834 L 68.16 229.647 L 82.09299999999999 197.519 L 102.591 197.519 L 102.591 230.834 z" stroke-linecap="round" />
</g>
		<g transform="matrix(1.56 0 0 1.56 -242.59 -3.33)"  >
<rect style="stroke: none; stroke-width: 1; stroke-dasharray: none; stroke-linecap: butt; stroke-dashoffset: 0; stroke-linejoin: miter; stroke-miterlimit: 4; fill: rgb(0,0,0); fill-rule: nonzero; opacity: 1;" vector-effect="non-scaling-stroke"  x="-13.2035" y="-6" rx="0" ry="0" width="26.407" height="12" />
</g>
		<g transform="matrix(1.56 0 0 1.56 0 0)"  >
<path style="stroke: none; stroke-width: 1; stroke-dasharray: none; stroke-linecap: butt; stroke-dashoffset: 0; stroke-linejoin: miter; stroke-miterlimit: 4; fill: rgb(0,0,0); fill-rule: nonzero; opacity: 1;" vector-effect="non-scaling-stroke"  transform=" translate(-256, -256)" d="M 480.49 147.901 L 466.074 147.901 L 466.074 159.741 L 455.418 129.239 L 320.346 133.71800000000002 L 215.671 197.94800000000004 C 210.688 194.13300000000004 204.465 191.85800000000003 197.718 191.85800000000003 C 191.13299999999998 191.85800000000003 185.04399999999998 194.02300000000002 180.12199999999999 197.67400000000004 L 180.12199999999999 166.21 L 62.068 166.21 L 34.937 228.37800000000001 L 34.937 282.144 L 19.51 282.144 L 19.51 330.56 L 30.638 330.56 L 30.638 355.138 L 73.217 355.138 C 77.17999999999999 370.986 91.533 382.76099999999997 108.59100000000001 382.76099999999997 C 125.64800000000001 382.76099999999997 140.002 370.986 143.965 355.14 L 162.687 355.14 L 162.687 355.134 L 291.304 355.134 C 295.26599999999996 370.98400000000004 309.61999999999995 382.761 326.679 382.761 C 339.402 382.761 350.61699999999996 376.206 357.14399999999995 366.302 C 363.66999999999996 376.206 374.88599999999997 382.761 387.6089999999999 382.761 C 406.7579999999999 382.761 422.49499999999995 367.91900000000004 423.95199999999994 349.13800000000003 L 424.0729999999999 349.13800000000003 L 424.0729999999999 299.982 L 424.0729999999999 293.982 L 424.0729999999999 279.076 L 429.15399999999994 275.27700000000004 L 476.82399999999996 275.27700000000004 L 476.82399999999996 239.64600000000004 L 492.49099999999993 227.93600000000004 L 492.49099999999993 153.90100000000004 L 492.49099999999993 147.90100000000004 L 492.49099999999993 135.38100000000003 L 480.49099999999993 135.38100000000003 L 480.49099999999993 147.901 z M 412.072 319.281 C 405.597 313.41200000000003 397.013 309.832 387.608 309.832 C 374.885 309.832 363.67 316.387 357.14300000000003 326.291 C 350.617 316.387 339.401 309.832 326.67800000000005 309.832 C 317.2730000000001 309.832 308.68800000000005 313.412 302.21400000000006 319.281 L 302.21400000000006 305.982 L 412.071 305.982 L 412.071 319.281 z M 222.092 238.216 L 239.85000000000002 289.041 L 239.85000000000002 301.955 L 201.377 301.955 L 201.377 250.81699999999998 C 209.955 249.753 217.404 245.011 222.092 238.216 z M 290.215 322.605 L 180.122 322.605 L 180.122 313.95500000000004 L 290.21500000000003 313.95500000000004 L 290.21500000000003 322.605 z M 189.377 301.955 L 180.122 301.955 L 180.122 245.23499999999999 C 182.87900000000002 247.28099999999998 186.00500000000002 248.85399999999998 189.377 249.84599999999998 L 189.377 301.955 z M 157.437 322.607 C 155.036 317.636 151.89800000000002 313.127 148.049 309.18300000000005 C 138.506 299.38400000000007 125.665 293.98800000000006 111.891 293.98800000000006 L 106.301 293.98800000000006 L 115.46300000000001 285.69700000000006 L 168.122 285.69700000000006 L 168.122 322.6070000000001 L 157.437 322.6070000000001 z M 162.313 339.305 C 162.125 337.72700000000003 161.843 336.16200000000003 161.515 334.608 L 180.12199999999999 334.608 L 180.12199999999999 334.606 L 195.964 334.606 L 195.964 343.135 L 162.611 343.135 C 162.552 341.854 162.462 340.572 162.313 339.305 z M 207.964 334.605 L 241.24099999999999 334.605 L 241.24099999999999 343.134 L 207.964 343.134 L 207.964 334.605 z M 253.241 334.605 L 290.21500000000003 334.605 L 290.21500000000003 343.134 L 253.24100000000004 343.134 L 253.24100000000004 334.605 z M 367.676 293.982 L 290.215 293.982 L 290.215 301.95500000000004 L 251.85 301.95500000000004 L 251.85 293.27900000000005 L 371.003 277.482 L 466.07399999999996 207.02100000000002 L 466.07399999999996 211.181 L 367.67599999999993 285.148 L 367.67599999999993 293.982 z M 258.589 185.691 L 318.923 148.67000000000002 L 324.372 164.26600000000002 L 335.7 160.30700000000002 L 330.48699999999997 145.388 L 429.28099999999995 142.113 L 450.71899999999994 203.46699999999998 L 371.33599999999996 262.301 L 338.76099999999997 169.06599999999997 L 327.433 173.02599999999998 L 360.201 266.811 L 290.177 276.094 L 284.067 258.608 L 272.73900000000003 262.565 L 278.028 277.706 L 274.545 278.16700000000003 L 245.12300000000002 193.95700000000005 L 248.12400000000002 192.11500000000004 L 268.82800000000003 251.37300000000005 L 280.156 247.41400000000004 L 258.589 185.691 z M 464.783 192.428 C 464.885 192.719 464.78700000000003 193.039 464.539 193.22299999999998 L 460.815 195.98299999999998 L 441.847 141.695 L 446.99699999999996 141.524 L 464.783 192.428 z M 234.654 200.377 L 262.394 279.77700000000004 L 249.90300000000002 281.43100000000004 L 226.40800000000002 214.18500000000006 C 225.98600000000002 212.52400000000006 225.42000000000002 210.92000000000007 224.73000000000002 209.38300000000007 L 223.89000000000001 206.98100000000008 L 234.654 200.377 z M 197.718 203.858 C 204.74699999999999 203.858 210.81 208.011 213.62599999999998 213.985 L 214.83399999999997 217.44400000000002 C 215.13699999999997 218.735 215.313 220.073 215.313 221.45600000000002 C 215.313 231.157 207.41899999999998 239.05200000000002 197.71699999999998 239.05200000000002 C 188.021 239.05200000000002 180.13199999999998 231.168 180.12099999999998 221.47500000000002 L 180.12099999999998 221.437 C 180.133 211.742 188.021 203.858 197.718 203.858 z M 46.938 230.882 L 69.924 178.21 L 168.122 178.21 L 168.122 185.52 L 123.71 185.52 L 123.71 197.52 L 168.12199999999999 197.52 L 168.12199999999999 221.416 C 168.12199999999999 221.429 168.12099999999998 221.441 168.12099999999998 221.45499999999998 C 168.12099999999998 221.468 168.12199999999999 221.48 168.12199999999999 221.493 L 168.12199999999999 273.697 L 110.84 273.697 L 75.816 305.392 L 46.939 305.392 L 46.939 282.144 L 46.937 282.144 L 46.937 230.882 z M 31.51 294.145 L 34.938 294.145 L 34.938 318.561 L 31.51 318.561 L 31.51 294.145 z M 42.638 334.605 L 74.06099999999999 334.605 C 73.139 337.322 72.52799999999999 340.17900000000003 72.273 343.13800000000003 L 42.638 343.13800000000003 L 42.638 334.605 z M 108.591 370.762 C 95.10199999999999 370.762 84.127 359.787 84.127 346.297 C 84.127 332.8070000000001 95.10199999999999 321.83200000000005 108.591 321.83200000000005 C 122.08099999999999 321.83200000000005 133.05599999999998 332.8070000000001 133.05599999999998 346.297 C 133.05599999999998 359.787 122.081 370.762 108.591 370.762 z M 144.91 343.141 C 143.304 324.50800000000004 127.633 309.832 108.591 309.832 C 97.782 309.832 88.06299999999999 314.564 81.37899999999999 322.05899999999997 L 46.939 322.05899999999997 L 46.939 317.393 L 80.438 317.393 L 93.041 305.989 L 111.89099999999999 305.989 C 122.39999999999999 305.989 132.188 310.096 139.456 317.561 C 143.14 321.33599999999996 145.98999999999998 325.784 147.928 330.774 C 149.162 333.965 149.992 337.311 150.396 340.713 C 150.49099999999999 341.516 150.563 342.326 150.611 343.141 L 144.91 343.141 z M 326.679 370.762 C 313.19 370.762 302.215 359.787 302.215 346.297 C 302.215 332.8070000000001 313.19 321.83200000000005 326.679 321.83200000000005 C 340.169 321.83200000000005 351.14399999999995 332.8070000000001 351.14399999999995 346.297 C 351.14399999999995 359.787 340.169 370.762 326.679 370.762 z M 387.608 370.762 C 374.118 370.762 363.14300000000003 359.787 363.14300000000003 346.297 C 363.14300000000003 332.8070000000001 374.11800000000005 321.83200000000005 387.608 321.83200000000005 C 401.097 321.83200000000005 412.072 332.8070000000001 412.072 346.297 C 412.072 359.787 401.098 370.762 387.608 370.762 z M 464.823 263.277 L 445.207 263.277 L 464.823 248.61499999999998 L 464.823 263.277 z M 480.49 221.923 L 412.072 273.064 L 412.072 293.982 L 379.676 293.982 L 379.676 291.14000000000004 L 478.07399999999996 217.17300000000006 L 478.07399999999996 159.90100000000007 L 480.48999999999995 159.90100000000007 L 480.48999999999995 221.923 z" stroke-linecap="round" />
</g>
</g>
</g>
</svg>