<?xml version="1.0" encoding="iso-8859-1"?>
<!-- Uploaded to: SVG Repo, www.svgrepo.com, Generator: SVG Repo Mixer Tools -->
<svg fill="#000000" height="800px" width="800px" version="1.1" id="Layer_1" xmlns="http://www.w3.org/2000/svg" xmlns:xlink="http://www.w3.org/1999/xlink" 
	 viewBox="0 0 480 480" xml:space="preserve">
<g>
	<g>
		<path d="M295.848,3.368C294.352,1.264,291.92,0,289.336,0h-99.688c-2.616,0-5.064,1.28-6.56,3.424
			c-1.504,2.144-1.848,4.88-0.952,7.336l16.6,45.168c-0.688,2.92-0.736,5.888-0.736,7.496c0,23.168,18.448,41.328,42,41.328
			s42-18.008,42-41c0-1.832-0.048-4.936-0.752-7.912l15.64-45.216C297.736,8.176,297.344,5.472,295.848,3.368z M240,88.752
			c-14.384,0-25.688-10.832-25.992-24.752H266C265.864,77.896,254.496,88.752,240,88.752z M267.024,48h-54.16l-11.76-32h76.992
			L267.024,48z"/>
	</g>
</g>
<g>
	<g>
		<path d="M464,377.472V320c0-10.416-6.712-19.216-16-22.528V184v-24c0-13.232-10.768-24-24-24H56c-13.232,0-24,10.768-24,24v24
			v113.472c-9.288,3.312-16,12.112-16,22.528v57.472C6.712,380.784,0,389.584,0,400v8c0,13.232,10.768,24,24,24h8v24
			c0,13.232,10.768,24,24,24h8c13.232,0,24-10.768,24-24v-24h304v24c0,13.232,10.768,24,24,24h8c13.232,0,24-10.768,24-24v-24h8
			c13.232,0,24-10.768,24-24v-8C480,389.584,473.288,380.784,464,377.472z M48,160c0-4.416,3.592-8,8-8h368c4.408,0,8,3.584,8,8v16
			H48V160z M48,192h384v104h-16v-56c0-13.232-10.768-24-24-24h-24h-64h-24c-13.232,0-24,10.768-24,24v56h-32v-56
			c0-13.232-10.768-24-24-24h-24h-64H88c-13.232,0-24,10.768-24,24v56H48V192z M320,272h32c13.232,0,24-10.768,24-24v-16h16
			c4.408,0,8,3.584,8,8v56H272v-56c0-4.416,3.592-8,8-8h16v16C296,261.232,306.768,272,320,272z M312,248v-16h48v16
			c0,4.416-3.592,8-8,8h-32C315.592,256,312,252.416,312,248z M128,272h32c13.232,0,24-10.768,24-24v-16h16c4.408,0,8,3.584,8,8v56
			H80v-56c0-4.416,3.592-8,8-8h16v16C104,261.232,114.768,272,128,272z M120,248v-16h48v16c0,4.416-3.592,8-8,8h-32
			C123.592,256,120,252.416,120,248z M32,320c0-4.416,3.592-8,8-8h32h144h48h144h32c4.408,0,8,3.584,8,8v56H32V320z M72,456
			c0,4.416-3.592,8-8,8h-8c-4.408,0-8-3.584-8-8v-24h24V456z M432,456c0,4.416-3.592,8-8,8h-8c-4.408,0-8-3.584-8-8v-24h24V456z
			 M464,408c0,4.416-3.592,8-8,8h-16h-40H80H40H24c-4.408,0-8-3.584-8-8v-8c0-4.416,3.592-8,8-8h432c4.408,0,8,3.584,8,8V408z"/>
	</g>
</g>
<g>
	<g>
		<path d="M120,336H72c-4.416,0-8,3.576-8,8s3.584,8,8,8h48c4.416,0,8-3.576,8-8S124.416,336,120,336z"/>
	</g>
</g>
<g>
	<g>
		<path d="M160,336h-8c-4.416,0-8,3.576-8,8s3.584,8,8,8h8c4.416,0,8-3.576,8-8S164.416,336,160,336z"/>
	</g>
</g>
<g>
	<g>
		<path d="M240,336h-48c-4.416,0-8,3.576-8,8s3.584,8,8,8h48c4.416,0,8-3.576,8-8S244.416,336,240,336z"/>
	</g>
</g>
<g>
	<g>
		<path d="M288,336h-8c-4.416,0-8,3.576-8,8s3.584,8,8,8h8c4.416,0,8-3.576,8-8S292.416,336,288,336z"/>
	</g>
</g>
<g>
	<g>
		<path d="M368,336h-48c-4.416,0-8,3.576-8,8s3.584,8,8,8h48c4.416,0,8-3.576,8-8S372.416,336,368,336z"/>
	</g>
</g>
<g>
	<g>
		<path d="M408,336h-8c-4.416,0-8,3.576-8,8s3.584,8,8,8h8c4.416,0,8-3.576,8-8S412.416,336,408,336z"/>
	</g>
</g>
</svg>